{"title":"Riddle.2013.WEBRip XViD juggs","uid":8230098,"size":743578731,"categoryP":"video","categoryS":"movies","magnet":"?xt=urn:btih:8f8d85fa777e3cff4eec85069b62736a64974450&amp;dn=Riddle.2013.WEBRip+XViD+juggs&amp;tr=udp%3A%2F%2Ftracker.openbittorrent.com%3A80&amp;tr=udp%3A%2F%2Fopen.demonii.com%3A1337&amp;tr=udp%3A%2F%2Ftracker.coppersurfer.tk%3A6969&amp;tr=udp%3A%2F%2Fexodus.desync.com%3A6969","seeders":1,"leechers":0,"uploader":"juggs99","files":3,"time":1362706476,"description":"Source : NGB\n\nFormat : AVI\nFormat/Info : Audio Video Interleave\nFile size : 702 MiB\nDuration : 1h 39mn\nOverall bit rate : 984 Kbps\nWriting library : VirtualDub build 32842/release\n\nVideo\nID : 0\nFormat : MPEG-4 Visual\nFormat profile : Advanced Simple@L5\nFormat settings, BVOP : 4\nFormat settings, QPel : No\nFormat settings, GMC : No warppoints\nFormat settings, Matrix : Default (H.263)\nMuxing mode : Packed bitstream\nCodec ID : XVID\nCodec ID/Hint : XviD\nDuration : 1h 39mn\nBit rate : 847 Kbps\nWidth : 640 pixels\nHeight : 352 pixels\nDisplay aspect ratio : 16:9\nFrame rate : 23.976 fps\nColor space : YUV\nChroma subsampling : 4:2:0\nBit depth : 8 bits\nScan type : Progressive\nCompression mode : Lossy\nBits/(Pixel*Frame) : 0.157\nStream size : 604 MiB (86%)\nWriting library : XviD 64\n\nAudio\nID : 1\nFormat : MPEG Audio\nFormat version : Version 1\nFormat profile : Layer 3\nCodec ID : 55\nCodec ID/Hint : MP3\nDuration : 1h 39mn\nBit rate mode : Constant\nBit rate : 128 Kbps\nChannel(s) : 2 channels\nSampling rate : 44.1 KHz\nCompression mode : Lossy\nStream size : 91.3 MiB (13%)\nAlignment : Split accross interleaves\nInterleave, duration : 42 ms (1.00 video frame)\nInterleave, preload duration : 500 ms\nWriting library : LAME3.99r\nEncoding settings : -m s -V 4 -q 3 -lowpass 17 -b 128\n\n\nPlot\nCollege student Holly Teller (Elisabeth Harnois) is drawn to the mysterious small\ntown of Riddle, Pennsylvania in search of her missing brother. Against the will of the\nlocal Sheriff (Val Kilmer) and town elder (William Sadler), she begins to unravel a mystery\nconnected to an abandoned psychiatric hospital on the edge of town, uncovering a terrifying\npast the town in determined to keep hidden.\n\n\n &lt;a href=&quot;\nhttp://www.shotpix.com/images/69566474620116492131.png&quot; rel=&quot;nofollow&quot; target=&quot;_NEW&quot;&gt;\nhttp://www.shotpix.com/images/69566474620116492131.png&lt;/a&gt; &lt;a href=&quot;\nhttp://www.shotpix.com/images/80390738841490003869.png&quot; rel=&quot;nofollow&quot; target=&quot;_NEW&quot;&gt;\nhttp://www.shotpix.com/images/80390738841490003869.png&lt;/a&gt; &lt;a href=&quot;\nhttp://www.shotpix.com/images/20614264903709869355.png&quot; rel=&quot;nofollow&quot; target=&quot;_NEW&quot;&gt;\nhttp://www.shotpix.com/images/20614264903709869355.png&lt;/a&gt; &lt;a href=&quot;\nhttp://www.shotpix.com/images/89940518871619207806.png&quot; rel=&quot;nofollow&quot; target=&quot;_NEW&quot;&gt;\nhttp://www.shotpix.com/images/89940518871619207806.png&lt;/a&gt;","torrent":{"xt":"urn:btih:8f8d85fa777e3cff4eec85069b62736a64974450","amp;dn":"Riddle.2013.WEBRip+XViD+juggs","amp;tr":["udp%3A%2F%2Ftracker.openbittorrent.com%3A80","udp%3A%2F%2Fopen.demonii.com%3A1337","udp%3A%2F%2Ftracker.coppersurfer.tk%3A6969","udp%3A%2F%2Fexodus.desync.com%3A6969"],"infoHash":"8f8d85fa777e3cff4eec85069b62736a64974450","infoHashBuffer":{"type":"Buffer","data":[143,141,133,250,119,126,60,255,78,236,133,6,155,98,115,106,100,151,68,80]},"announce":[],"urlList":[]}}